<?xml version="1.0" encoding="UTF-8" standalone="no"?>
<!DOCTYPE svg PUBLIC "-//W3C//DTD SVG 1.1//EN"
 "http://www.w3.org/Graphics/SVG/1.1/DTD/svg11.dtd">
<!-- Generated by graphviz version 2.47.0 (20210316.0004)
 -->
<!-- Title: test Pages: 1 -->
<!--zoomable 675 -->
<svg id="main" version="1.1" xmlns="http://www.w3.org/2000/svg" xmlns:xlink="http://www.w3.org/1999/xlink" xml:space="preserve" onload="init(evt)">
<style type="text/css"><![CDATA[
.edge:hover path { stroke: red; }
.edge:hover polygon { stroke: red; fill: red; }
]]></style>
<script type="text/javascript"><![CDATA[
var edges = document.getElementsByTagName('g');
if (edges && edges.length) {
  for (var i=0;i<edges.length;i++) {
    if (edges[i].id.substr(0,4)=='edge') {
      edges[i].setAttribute('class','edge');
    }
  }
}
]]></script>
        <defs>
                <circle id="rim" cx="0" cy="0" r="7"/>
                <circle id="rim2" cx="0" cy="0" r="3.5"/>
                <g id="zoomPlus">
                        <use xlink:href="#rim" fill="#404040">
                                <set attributeName="fill" to="#808080" begin="zoomplus.mouseover" end="zoomplus.mouseout"/>
                        </use>
                        <path d="M-4,0h8M0,-4v8" fill="none" stroke="white" stroke-width="1.5" pointer-events="none"/>
                </g>
                <g id="zoomMin">
                        <use xlink:href="#rim" fill="#404040">
                                <set attributeName="fill" to="#808080" begin="zoomminus.mouseover" end="zoomminus.mouseout"/>
                        </use>
                        <path d="M-4,0h8" fill="none" stroke="white" stroke-width="1.5" pointer-events="none"/>
                </g>
                <g id="dirArrow">
                        <path fill="none" stroke="white" stroke-width="1.5" d="M0,-3.0v7 M-2.5,-0.5L0,-3.0L2.5,-0.5"/>
                </g>
               <g id="resetDef">
                       <use xlink:href="#rim2" fill="#404040">
                               <set attributeName="fill" to="#808080" begin="reset.mouseover" end="reset.mouseout"/>
                       </use>
               </g>
        </defs>

<script type="text/javascript">
var viewWidth = 604;
var viewHeight = 675;
var sectionId = 'dynsection-2';
</script>
<script xlink:href="../../svgpan.js"/>
<svg id="graph" class="graph">
<g id="viewport">
<title>test</title>
<polygon fill="white" stroke="transparent" points="-4,4 -4,-670.99 600,-670.99 600,4 -4,4"/>
<!-- Node1 -->
<g id="node1" class="node">
<title>Node1</title>
<g id="a_node1"><a xlink:title=" ">
<polygon fill="#bfbfbf" stroke="black" points="0,-438.5 0,-457.5 33,-457.5 33,-438.5 0,-438.5"/>
<text text-anchor="middle" x="16.5" y="-445.5" font-family="Helvetica,sans-Serif" font-size="10.00">test</text>
</a>
</g>
</g>
<!-- Node2 -->
<g id="node2" class="node">
<title>Node2</title>
<g id="a_node2"><a target="_blank" xlink:href="http://en.cppreference.com/w/cpp/io/manip/endl.html#" xlink:title=" ">
<polygon fill="white" stroke="black" points="83.5,-533.5 83.5,-552.5 137.5,-552.5 137.5,-533.5 83.5,-533.5"/>
<text text-anchor="middle" x="110.5" y="-540.5" font-family="Helvetica,sans-Serif" font-size="10.00">std::endl</text>
</a>
</g>
</g>
<!-- Node1&#45;&gt;Node2 -->
<g id="edge1" class="edge">
<title>Node1&#45;&gt;Node2</title>
<path fill="none" stroke="midnightblue" d="M21.89,-457.62C29.49,-473.35 46.46,-504.74 69,-524 70.73,-525.48 72.59,-526.86 74.53,-528.16"/>
<polygon fill="midnightblue" stroke="midnightblue" points="72.99,-531.31 83.4,-533.29 76.5,-525.25 72.99,-531.31"/>
</g>
<!-- Node3 -->
<g id="node3" class="node">
<title>Node3</title>
<g id="a_node3"><a xlink:href="../../d1/de9/integral__approximation_8cpp.html#a7f4fb1b8f896a4d6c17877fbed0d8702" target="_top" xlink:title=" ">
<polygon fill="white" stroke="black" points="69,-495.5 69,-514.5 152,-514.5 152,-495.5 69,-495.5"/>
<text text-anchor="middle" x="110.5" y="-502.5" font-family="Helvetica,sans-Serif" font-size="10.00">integral_approx</text>
</a>
</g>
</g>
<!-- Node1&#45;&gt;Node3 -->
<g id="edge2" class="edge">
<title>Node1&#45;&gt;Node3</title>
<path fill="none" stroke="midnightblue" d="M29.31,-457.76C39.46,-465.89 54.68,-477.47 69,-486 71.8,-487.67 74.78,-489.3 77.79,-490.87"/>
<polygon fill="midnightblue" stroke="midnightblue" points="76.29,-494.03 86.81,-495.32 79.39,-487.75 76.29,-494.03"/>
</g>
<!-- Node4 -->
<g id="node4" class="node">
<title>Node4</title>
<g id="a_node4"><a xlink:href="../../d2/de9/heavy__light__decomposition_8cpp.html#a34b8683a2b429de5cce57e6d733ec817" target="_top" xlink:title=" ">
<polygon fill="white" stroke="black" points="88.5,-419.5 88.5,-438.5 132.5,-438.5 132.5,-419.5 88.5,-419.5"/>
<text text-anchor="middle" x="110.5" y="-426.5" font-family="Helvetica,sans-Serif" font-size="10.00">test_1</text>
</a>
</g>
</g>
<!-- Node1&#45;&gt;Node4 -->
<g id="edge3" class="edge">
<title>Node1&#45;&gt;Node4</title>
<path fill="none" stroke="midnightblue" d="M33.11,-444.78C45.44,-442.23 63.04,-438.6 78.24,-435.46"/>
<polygon fill="midnightblue" stroke="midnightblue" points="79.2,-438.83 88.29,-433.38 77.78,-431.98 79.2,-438.83"/>
</g>
<!-- Node24 -->
<g id="node24" class="node">
<title>Node24</title>
<g id="a_node24"><a xlink:href="../../d2/de9/heavy__light__decomposition_8cpp.html#a458410412185a5f09199deaff7157a8d" target="_top" xlink:title=" ">
<polygon fill="white" stroke="black" points="88.5,-457.5 88.5,-476.5 132.5,-476.5 132.5,-457.5 88.5,-457.5"/>
<text text-anchor="middle" x="110.5" y="-464.5" font-family="Helvetica,sans-Serif" font-size="10.00">test_2</text>
</a>
</g>
</g>
<!-- Node1&#45;&gt;Node24 -->
<g id="edge26" class="edge">
<title>Node1&#45;&gt;Node24</title>
<path fill="none" stroke="midnightblue" d="M33.11,-451.22C45.44,-453.77 63.04,-457.4 78.24,-460.54"/>
<polygon fill="midnightblue" stroke="midnightblue" points="77.78,-464.02 88.29,-462.62 79.2,-457.17 77.78,-464.02"/>
</g>
<!-- Node25 -->
<g id="node25" class="node">
<title>Node25</title>
<g id="a_node25"><a xlink:href="../../d2/de9/heavy__light__decomposition_8cpp.html#af31ec5409537703d9c8a47350386b32a" target="_top" xlink:title=" ">
<polygon fill="white" stroke="black" points="88.5,-376.5 88.5,-395.5 132.5,-395.5 132.5,-376.5 88.5,-376.5"/>
<text text-anchor="middle" x="110.5" y="-383.5" font-family="Helvetica,sans-Serif" font-size="10.00">test_3</text>
</a>
</g>
</g>
<!-- Node1&#45;&gt;Node25 -->
<g id="edge34" class="edge">
<title>Node1&#45;&gt;Node25</title>
<path fill="none" stroke="midnightblue" d="M29.95,-438.27C40.22,-430.37 55.29,-419.09 69,-410 73.57,-406.97 78.52,-403.89 83.34,-400.98"/>
<polygon fill="midnightblue" stroke="midnightblue" points="85.49,-403.77 92.32,-395.67 81.93,-397.75 85.49,-403.77"/>
</g>
<!-- Node26 -->
<g id="node26" class="node">
<title>Node26</title>
<g id="a_node26"><a xlink:href="../../d1/de9/integral__approximation_8cpp.html#adf3f76dd4de4df20ef53c611b924026e" target="_top" xlink:title=" ">
<polygon fill="white" stroke="black" points="82.5,-338.5 82.5,-357.5 138.5,-357.5 138.5,-338.5 82.5,-338.5"/>
<text text-anchor="middle" x="110.5" y="-345.5" font-family="Helvetica,sans-Serif" font-size="10.00">test_eval</text>
</a>
</g>
</g>
<!-- Node1&#45;&gt;Node26 -->
<g id="edge42" class="edge">
<title>Node1&#45;&gt;Node26</title>
<path fill="none" stroke="midnightblue" d="M21.49,-438.27C28.73,-421.68 45.48,-387.69 69,-367 70.71,-365.5 72.55,-364.09 74.48,-362.78"/>
<polygon fill="midnightblue" stroke="midnightblue" points="76.45,-365.68 83.32,-357.61 72.92,-359.64 76.45,-365.68"/>
</g>
<!-- Node5 -->
<g id="node5" class="node">
<title>Node5</title>
<g id="a_node5"><a xlink:href="../../d1/d51/classrange__queries_1_1heavy__light__decomposition_1_1_tree.html#a79ab4601c4a95c0902ac04e779e5f54d" target="_top" xlink:title="Adds an undirected edge from node u to node v in the tree.">
<polygon fill="white" stroke="black" points="188,-365.5 188,-406.5 298,-406.5 298,-365.5 188,-365.5"/>
<text text-anchor="start" x="196" y="-394.5" font-family="Helvetica,sans-Serif" font-size="10.00">range_queries::heavy</text>
<text text-anchor="start" x="196" y="-383.5" font-family="Helvetica,sans-Serif" font-size="10.00">_light_decomposition</text>
<text text-anchor="middle" x="243" y="-372.5" font-family="Helvetica,sans-Serif" font-size="10.00">::Tree::add_edge</text>
</a>
</g>
</g>
<!-- Node4&#45;&gt;Node5 -->
<g id="edge4" class="edge">
<title>Node4&#45;&gt;Node5</title>
<path fill="none" stroke="midnightblue" d="M132.76,-422C145.26,-417.88 161.78,-412.43 178.19,-407.03"/>
<polygon fill="midnightblue" stroke="midnightblue" points="179.4,-410.31 187.8,-403.86 177.21,-403.66 179.4,-410.31"/>
</g>
<!-- Node6 -->
<g id="node6" class="node">
<title>Node6</title>
<g id="a_node6"><a target="_blank" xlink:href="http://en.cppreference.com/w/cpp/container/vector/push_back.html#" xlink:title=" ">
<polygon fill="white" stroke="black" points="334,-411.5 334,-430.5 450,-430.5 450,-411.5 334,-411.5"/>
<text text-anchor="middle" x="392" y="-418.5" font-family="Helvetica,sans-Serif" font-size="10.00">std::vector::push_back</text>
</a>
</g>
</g>
<!-- Node4&#45;&gt;Node6 -->
<g id="edge14" class="edge">
<title>Node4&#45;&gt;Node6</title>
<path fill="none" stroke="midnightblue" d="M132.51,-428.4C172.55,-427.25 261.37,-424.71 323.67,-422.93"/>
<polygon fill="midnightblue" stroke="midnightblue" points="323.91,-426.42 333.81,-422.64 323.71,-419.42 323.91,-426.42"/>
</g>
<!-- Node7 -->
<g id="node7" class="node">
<title>Node7</title>
<g id="a_node7"><a xlink:href="../../d2/d8a/classrange__queries_1_1heavy__light__decomposition_1_1_h_l_d.html#ae9e979edd69678b85665c01e2ee97828" target="_top" xlink:title="This function must be called after the tree adjacency list and node values are populated The function...">
<polygon fill="white" stroke="black" points="188,-169.5 188,-210.5 298,-210.5 298,-169.5 188,-169.5"/>
<text text-anchor="start" x="196" y="-198.5" font-family="Helvetica,sans-Serif" font-size="10.00">range_queries::heavy</text>
<text text-anchor="start" x="196" y="-187.5" font-family="Helvetica,sans-Serif" font-size="10.00">_light_decomposition</text>
<text text-anchor="middle" x="243" y="-176.5" font-family="Helvetica,sans-Serif" font-size="10.00">::HLD::init</text>
</a>
</g>
</g>
<!-- Node4&#45;&gt;Node7 -->
<g id="edge6" class="edge">
<title>Node4&#45;&gt;Node7</title>
<path fill="none" stroke="midnightblue" d="M132.87,-420.44C139.89,-416.66 147.13,-411.57 152,-405 192.06,-350.97 158.4,-318.4 188,-258 194.95,-243.81 205.26,-229.84 215.02,-218.29"/>
<polygon fill="midnightblue" stroke="midnightblue" points="217.7,-220.54 221.63,-210.71 212.42,-215.94 217.7,-220.54"/>
</g>
<!-- Node15 -->
<g id="node15" class="node">
<title>Node15</title>
<g id="a_node15"><a xlink:href="../../d2/d8a/classrange__queries_1_1heavy__light__decomposition_1_1_h_l_d.html#a4dfbf5d9df825eeb63b294c6849bdcab" target="_top" xlink:title="This function returns the sum of node values in the simple path from from node_1 to node_2.">
<polygon fill="white" stroke="black" points="188,-267.5 188,-308.5 298,-308.5 298,-267.5 188,-267.5"/>
<text text-anchor="start" x="196" y="-296.5" font-family="Helvetica,sans-Serif" font-size="10.00">range_queries::heavy</text>
<text text-anchor="start" x="196" y="-285.5" font-family="Helvetica,sans-Serif" font-size="10.00">_light_decomposition</text>
<text text-anchor="middle" x="243" y="-274.5" font-family="Helvetica,sans-Serif" font-size="10.00">::HLD::query</text>
</a>
</g>
</g>
<!-- Node4&#45;&gt;Node15 -->
<g id="edge15" class="edge">
<title>Node4&#45;&gt;Node15</title>
<path fill="none" stroke="midnightblue" d="M131.13,-419.47C138.14,-415.54 145.82,-410.6 152,-405 172.03,-386.86 171.59,-377.47 188,-356 197.96,-342.96 209.22,-328.71 218.87,-316.64"/>
<polygon fill="midnightblue" stroke="midnightblue" points="221.73,-318.67 225.25,-308.67 216.27,-314.29 221.73,-318.67"/>
</g>
<!-- Node20 -->
<g id="node20" class="node">
<title>Node20</title>
<g id="a_node20"><a xlink:href="../../d1/d51/classrange__queries_1_1heavy__light__decomposition_1_1_tree.html#a04cd96efaba147b19d3afc769b90ff70" target="_top" xlink:title="Set the values for all the nodes.">
<polygon fill="white" stroke="black" points="188,-463.5 188,-504.5 298,-504.5 298,-463.5 188,-463.5"/>
<text text-anchor="start" x="196" y="-492.5" font-family="Helvetica,sans-Serif" font-size="10.00">range_queries::heavy</text>
<text text-anchor="start" x="196" y="-481.5" font-family="Helvetica,sans-Serif" font-size="10.00">_light_decomposition</text>
<text text-anchor="middle" x="243" y="-470.5" font-family="Helvetica,sans-Serif" font-size="10.00">::Tree::set_node_val</text>
</a>
</g>
</g>
<!-- Node4&#45;&gt;Node20 -->
<g id="edge21" class="edge">
<title>Node4&#45;&gt;Node20</title>
<path fill="none" stroke="midnightblue" d="M132.76,-437.96C146.66,-443.82 165.54,-451.78 183.7,-459.43"/>
<polygon fill="midnightblue" stroke="midnightblue" points="182.53,-462.73 193.1,-463.39 185.24,-456.28 182.53,-462.73"/>
</g>
<!-- Node21 -->
<g id="node21" class="node">
<title>Node21</title>
<g id="a_node21"><a target="_blank" xlink:href="http://en.cppreference.com/w/cpp/container/vector/size.html#" xlink:title=" ">
<polygon fill="white" stroke="black" points="348.5,-498.5 348.5,-517.5 435.5,-517.5 435.5,-498.5 348.5,-498.5"/>
<text text-anchor="middle" x="392" y="-505.5" font-family="Helvetica,sans-Serif" font-size="10.00">std::vector::size</text>
</a>
</g>
</g>
<!-- Node4&#45;&gt;Node21 -->
<g id="edge23" class="edge">
<title>Node4&#45;&gt;Node21</title>
<path fill="none" stroke="midnightblue" d="M132.82,-436C139.52,-438.94 146.57,-442.89 152,-448 176.33,-470.9 159.27,-496.94 188,-514 238.94,-544.24 310.47,-532.2 353.61,-520.35"/>
<polygon fill="midnightblue" stroke="midnightblue" points="354.77,-523.66 363.41,-517.53 352.83,-516.93 354.77,-523.66"/>
</g>
<!-- Node22 -->
<g id="node22" class="node">
<title>Node22</title>
<g id="a_node22"><a xlink:href="../../d2/d8a/classrange__queries_1_1heavy__light__decomposition_1_1_h_l_d.html#a9f1cb54ed09fde931bf3220d75ee4c57" target="_top" xlink:title="This function updates the value at node with val.">
<polygon fill="white" stroke="black" points="188,-561.5 188,-602.5 298,-602.5 298,-561.5 188,-561.5"/>
<text text-anchor="start" x="196" y="-590.5" font-family="Helvetica,sans-Serif" font-size="10.00">range_queries::heavy</text>
<text text-anchor="start" x="196" y="-579.5" font-family="Helvetica,sans-Serif" font-size="10.00">_light_decomposition</text>
<text text-anchor="middle" x="243" y="-568.5" font-family="Helvetica,sans-Serif" font-size="10.00">::HLD::update</text>
</a>
</g>
</g>
<!-- Node4&#45;&gt;Node22 -->
<g id="edge24" class="edge">
<title>Node4&#45;&gt;Node22</title>
<path fill="none" stroke="midnightblue" d="M132.87,-435.36C139.73,-438.28 146.87,-442.38 152,-448 183.59,-482.56 158.84,-510.37 188,-547 190.12,-549.67 192.5,-552.19 195.06,-554.58"/>
<polygon fill="midnightblue" stroke="midnightblue" points="193.2,-557.59 203.12,-561.3 197.68,-552.21 193.2,-557.59"/>
</g>
<!-- Node5&#45;&gt;Node6 -->
<g id="edge5" class="edge">
<title>Node5&#45;&gt;Node6</title>
<path fill="none" stroke="midnightblue" d="M298.32,-398.93C312.27,-402.26 327.22,-405.81 340.94,-409.08"/>
<polygon fill="midnightblue" stroke="midnightblue" points="340.15,-412.49 350.69,-411.4 341.77,-405.68 340.15,-412.49"/>
</g>
<!-- Node8 -->
<g id="node8" class="node">
<title>Node8</title>
<g id="a_node8"><a xlink:href="../../d9/d35/classrange__queries_1_1heavy__light__decomposition_1_1_s_g.html#a41c733f5f5e262b308f7cb95c88c1e74" target="_top" xlink:title="Function that specifies the type of operation involved when segments are combined.">
<polygon fill="white" stroke="black" points="486,-199.5 486,-240.5 596,-240.5 596,-199.5 486,-199.5"/>
<text text-anchor="start" x="494" y="-228.5" font-family="Helvetica,sans-Serif" font-size="10.00">range_queries::heavy</text>
<text text-anchor="start" x="494" y="-217.5" font-family="Helvetica,sans-Serif" font-size="10.00">_light_decomposition</text>
<text text-anchor="middle" x="541" y="-206.5" font-family="Helvetica,sans-Serif" font-size="10.00">::SG::combine</text>
</a>
</g>
</g>
<!-- Node7&#45;&gt;Node8 -->
<g id="edge7" class="edge">
<title>Node7&#45;&gt;Node8</title>
<path fill="none" stroke="midnightblue" d="M298.26,-194.56C339.82,-198.16 398.58,-203.49 450,-209 458.32,-209.89 467.08,-210.89 475.72,-211.91"/>
<polygon fill="midnightblue" stroke="midnightblue" points="475.43,-215.4 485.77,-213.11 476.26,-208.45 475.43,-215.4"/>
</g>
<!-- Node9 -->
<g id="node9" class="node">
<title>Node9</title>
<g id="a_node9"><a xlink:href="../../d2/d8a/classrange__queries_1_1heavy__light__decomposition_1_1_h_l_d.html#af64848d6630c39d0f09ce2359cc7c4f8" target="_top" xlink:title="Utility function to assign heavy child to each node (&#45;1 for a leaf node)">
<polygon fill="white" stroke="black" points="337,-0.5 337,-41.5 447,-41.5 447,-0.5 337,-0.5"/>
<text text-anchor="start" x="345" y="-29.5" font-family="Helvetica,sans-Serif" font-size="10.00">range_queries::heavy</text>
<text text-anchor="start" x="345" y="-18.5" font-family="Helvetica,sans-Serif" font-size="10.00">_light_decomposition</text>
<text text-anchor="middle" x="392" y="-7.5" font-family="Helvetica,sans-Serif" font-size="10.00">::HLD::dfs_hc</text>
</a>
</g>
</g>
<!-- Node7&#45;&gt;Node9 -->
<g id="edge8" class="edge">
<title>Node7&#45;&gt;Node9</title>
<path fill="none" stroke="midnightblue" d="M253.22,-169.26C267.14,-139.84 296.01,-85.71 334,-51 335.28,-49.83 336.61,-48.7 337.98,-47.59"/>
<polygon fill="midnightblue" stroke="midnightblue" points="340.18,-50.32 346.24,-41.63 336.08,-44.65 340.18,-50.32"/>
</g>
<!-- Node10 -->
<g id="node10" class="node">
<title>Node10</title>
<g id="a_node10"><a xlink:href="../../d2/d8a/classrange__queries_1_1heavy__light__decomposition_1_1_h_l_d.html#a0579062b384e54b611b80c6337c7f2c8" target="_top" xlink:title="Utility function to lable the nodes so that heavy chains have a contigous lable.">
<polygon fill="white" stroke="black" points="337,-218.5 337,-259.5 447,-259.5 447,-218.5 337,-218.5"/>
<text text-anchor="start" x="345" y="-247.5" font-family="Helvetica,sans-Serif" font-size="10.00">range_queries::heavy</text>
<text text-anchor="start" x="345" y="-236.5" font-family="Helvetica,sans-Serif" font-size="10.00">_light_decomposition</text>
<text text-anchor="middle" x="392" y="-225.5" font-family="Helvetica,sans-Serif" font-size="10.00">::HLD::dfs_labels</text>
</a>
</g>
</g>
<!-- Node7&#45;&gt;Node10 -->
<g id="edge9" class="edge">
<title>Node7&#45;&gt;Node10</title>
<path fill="none" stroke="midnightblue" d="M298.32,-208.11C307.77,-211.26 317.67,-214.56 327.34,-217.78"/>
<polygon fill="midnightblue" stroke="midnightblue" points="326.31,-221.13 336.9,-220.97 328.52,-214.49 326.31,-221.13"/>
</g>
<!-- Node11 -->
<g id="node11" class="node">
<title>Node11</title>
<g id="a_node11"><a xlink:href="../../d2/d8a/classrange__queries_1_1heavy__light__decomposition_1_1_h_l_d.html#a2dfbda148aad0bfaba2ebfda9ebc915a" target="_top" xlink:title="Utility function to assign highest parent that can be reached though heavy chains.">
<polygon fill="white" stroke="black" points="337,-120.5 337,-161.5 447,-161.5 447,-120.5 337,-120.5"/>
<text text-anchor="start" x="345" y="-149.5" font-family="Helvetica,sans-Serif" font-size="10.00">range_queries::heavy</text>
<text text-anchor="start" x="345" y="-138.5" font-family="Helvetica,sans-Serif" font-size="10.00">_light_decomposition</text>
<text text-anchor="middle" x="392" y="-127.5" font-family="Helvetica,sans-Serif" font-size="10.00">::HLD::dfs_par</text>
</a>
</g>
</g>
<!-- Node7&#45;&gt;Node11 -->
<g id="edge10" class="edge">
<title>Node7&#45;&gt;Node11</title>
<path fill="none" stroke="midnightblue" d="M298.32,-171.89C307.77,-168.74 317.67,-165.44 327.34,-162.22"/>
<polygon fill="midnightblue" stroke="midnightblue" points="328.52,-165.51 336.9,-159.03 326.31,-158.87 328.52,-165.51"/>
</g>
<!-- Node12 -->
<g id="node12" class="node">
<title>Node12</title>
<g id="a_node12"><a xlink:href="../../d1/d51/classrange__queries_1_1heavy__light__decomposition_1_1_tree.html#ad22d760a5a33545a70e7ea5e1786c8dc" target="_top" xlink:title="This function must be called after the tree adjacency list and node values are populated The function...">
<polygon fill="white" stroke="black" points="337,-60.5 337,-101.5 447,-101.5 447,-60.5 337,-60.5"/>
<text text-anchor="start" x="345" y="-89.5" font-family="Helvetica,sans-Serif" font-size="10.00">range_queries::heavy</text>
<text text-anchor="start" x="345" y="-78.5" font-family="Helvetica,sans-Serif" font-size="10.00">_light_decomposition</text>
<text text-anchor="middle" x="392" y="-67.5" font-family="Helvetica,sans-Serif" font-size="10.00">::Tree::init</text>
</a>
</g>
</g>
<!-- Node7&#45;&gt;Node12 -->
<g id="edge11" class="edge">
<title>Node7&#45;&gt;Node12</title>
<path fill="none" stroke="midnightblue" d="M264.65,-169.33C282.17,-152.44 308.48,-128.55 334,-111 336.1,-109.56 338.27,-108.14 340.49,-106.74"/>
<polygon fill="midnightblue" stroke="midnightblue" points="342.44,-109.65 349.23,-101.51 338.85,-103.64 342.44,-109.65"/>
</g>
<!-- Node13 -->
<g id="node13" class="node">
<title>Node13</title>
<g id="a_node13"><a xlink:href="../../d1/d51/classrange__queries_1_1heavy__light__decomposition_1_1_tree.html#ae8de7aefcb6635d3dacdd174cd4890c4" target="_top" xlink:title="Utility function to populate the t_par vector.">
<polygon fill="white" stroke="black" points="486,-30.5 486,-71.5 596,-71.5 596,-30.5 486,-30.5"/>
<text text-anchor="start" x="494" y="-59.5" font-family="Helvetica,sans-Serif" font-size="10.00">range_queries::heavy</text>
<text text-anchor="start" x="494" y="-48.5" font-family="Helvetica,sans-Serif" font-size="10.00">_light_decomposition</text>
<text text-anchor="middle" x="541" y="-37.5" font-family="Helvetica,sans-Serif" font-size="10.00">::Tree::dfs_lca</text>
</a>
</g>
</g>
<!-- Node12&#45;&gt;Node13 -->
<g id="edge12" class="edge">
<title>Node12&#45;&gt;Node13</title>
<path fill="none" stroke="midnightblue" d="M447.32,-69.91C456.67,-68.01 466.46,-66.01 476.03,-64.05"/>
<polygon fill="midnightblue" stroke="midnightblue" points="476.81,-67.47 485.9,-62.04 475.41,-60.61 476.81,-67.47"/>
</g>
<!-- Node14 -->
<g id="node14" class="node">
<title>Node14</title>
<g id="a_node14"><a xlink:href="../../d1/d51/classrange__queries_1_1heavy__light__decomposition_1_1_tree.html#aa339c31ec74cd86a4842a8b09653d460" target="_top" xlink:title="Utility function to compute sub&#45;tree sizes.">
<polygon fill="white" stroke="black" points="486,-90.5 486,-131.5 596,-131.5 596,-90.5 486,-90.5"/>
<text text-anchor="start" x="494" y="-119.5" font-family="Helvetica,sans-Serif" font-size="10.00">range_queries::heavy</text>
<text text-anchor="start" x="494" y="-108.5" font-family="Helvetica,sans-Serif" font-size="10.00">_light_decomposition</text>
<text text-anchor="middle" x="541" y="-97.5" font-family="Helvetica,sans-Serif" font-size="10.00">::Tree::dfs_size</text>
</a>
</g>
</g>
<!-- Node12&#45;&gt;Node14 -->
<g id="edge13" class="edge">
<title>Node12&#45;&gt;Node14</title>
<path fill="none" stroke="midnightblue" d="M447.32,-92.09C456.67,-93.99 466.46,-95.99 476.03,-97.95"/>
<polygon fill="midnightblue" stroke="midnightblue" points="475.41,-101.39 485.9,-99.96 476.81,-94.53 475.41,-101.39"/>
</g>
<!-- Node16 -->
<g id="node16" class="node">
<title>Node16</title>
<g id="a_node16"><a xlink:href="../../d2/d8a/classrange__queries_1_1heavy__light__decomposition_1_1_h_l_d.html#a7d5b40c076347a6aabfb37a0590f2f24" target="_top" xlink:title="Utility function to break down a path query into two chain queries.">
<polygon fill="white" stroke="black" points="337,-278.5 337,-319.5 447,-319.5 447,-278.5 337,-278.5"/>
<text text-anchor="start" x="345" y="-307.5" font-family="Helvetica,sans-Serif" font-size="10.00">range_queries::heavy</text>
<text text-anchor="start" x="345" y="-296.5" font-family="Helvetica,sans-Serif" font-size="10.00">_light_decomposition</text>
<text text-anchor="middle" x="392" y="-285.5" font-family="Helvetica,sans-Serif" font-size="10.00">::HLD::chain_query</text>
</a>
</g>
</g>
<!-- Node15&#45;&gt;Node16 -->
<g id="edge16" class="edge">
<title>Node15&#45;&gt;Node16</title>
<path fill="none" stroke="midnightblue" d="M298.32,-292.06C307.57,-292.76 317.25,-293.48 326.73,-294.19"/>
<polygon fill="midnightblue" stroke="midnightblue" points="326.67,-297.7 336.9,-294.95 327.19,-290.72 326.67,-297.7"/>
</g>
<!-- Node18 -->
<g id="node18" class="node">
<title>Node18</title>
<g id="a_node18"><a xlink:href="../../d1/d51/classrange__queries_1_1heavy__light__decomposition_1_1_tree.html#ae2b407e64aaf9878fbee7ee6efe9c7d4" target="_top" xlink:title="The function returns the least common ancestor of two nodes.">
<polygon fill="white" stroke="black" points="337,-338.5 337,-379.5 447,-379.5 447,-338.5 337,-338.5"/>
<text text-anchor="start" x="345" y="-367.5" font-family="Helvetica,sans-Serif" font-size="10.00">range_queries::heavy</text>
<text text-anchor="start" x="345" y="-356.5" font-family="Helvetica,sans-Serif" font-size="10.00">_light_decomposition</text>
<text text-anchor="middle" x="392" y="-345.5" font-family="Helvetica,sans-Serif" font-size="10.00">::Tree::lca</text>
</a>
</g>
</g>
<!-- Node15&#45;&gt;Node18 -->
<g id="edge19" class="edge">
<title>Node15&#45;&gt;Node18</title>
<path fill="none" stroke="midnightblue" d="M286.52,-308.54C302.9,-316.45 321.8,-325.58 338.98,-333.88"/>
<polygon fill="midnightblue" stroke="midnightblue" points="337.8,-337.19 348.32,-338.39 340.84,-330.89 337.8,-337.19"/>
</g>
<!-- Node16&#45;&gt;Node8 -->
<g id="edge17" class="edge">
<title>Node16&#45;&gt;Node8</title>
<path fill="none" stroke="midnightblue" d="M432.29,-278.42C438.23,-275.28 444.28,-272.06 450,-269 464.15,-261.42 479.51,-253.1 493.46,-245.5"/>
<polygon fill="midnightblue" stroke="midnightblue" points="495.3,-248.48 502.41,-240.62 491.95,-242.34 495.3,-248.48"/>
</g>
<!-- Node17 -->
<g id="node17" class="node">
<title>Node17</title>
<g id="a_node17"><a target="_blank" xlink:href="http://en.cppreference.com/w/cpp/algorithm/swap.html#" xlink:title=" ">
<polygon fill="white" stroke="black" points="511.5,-289.5 511.5,-308.5 570.5,-308.5 570.5,-289.5 511.5,-289.5"/>
<text text-anchor="middle" x="541" y="-296.5" font-family="Helvetica,sans-Serif" font-size="10.00">std::swap</text>
</a>
</g>
</g>
<!-- Node16&#45;&gt;Node17 -->
<g id="edge18" class="edge">
<title>Node16&#45;&gt;Node17</title>
<path fill="none" stroke="midnightblue" d="M447.32,-299C465.17,-299 484.63,-299 501.1,-299"/>
<polygon fill="midnightblue" stroke="midnightblue" points="501.44,-302.5 511.44,-299 501.44,-295.5 501.44,-302.5"/>
</g>
<!-- Node19 -->
<g id="node19" class="node">
<title>Node19</title>
<g id="a_node19"><a xlink:href="../../d1/d51/classrange__queries_1_1heavy__light__decomposition_1_1_tree.html#ac7761255f2ba06b398b9aae5e4dce5f3" target="_top" xlink:title="The function lifts a node, k units up the tree. The lifting is done in place, and the result is store...">
<polygon fill="white" stroke="black" points="486,-338.5 486,-379.5 596,-379.5 596,-338.5 486,-338.5"/>
<text text-anchor="start" x="494" y="-367.5" font-family="Helvetica,sans-Serif" font-size="10.00">range_queries::heavy</text>
<text text-anchor="start" x="494" y="-356.5" font-family="Helvetica,sans-Serif" font-size="10.00">_light_decomposition</text>
<text text-anchor="middle" x="541" y="-345.5" font-family="Helvetica,sans-Serif" font-size="10.00">::Tree::lift</text>
</a>
</g>
</g>
<!-- Node18&#45;&gt;Node19 -->
<g id="edge20" class="edge">
<title>Node18&#45;&gt;Node19</title>
<path fill="none" stroke="midnightblue" d="M447.32,-359C456.57,-359 466.25,-359 475.73,-359"/>
<polygon fill="midnightblue" stroke="midnightblue" points="475.9,-362.5 485.9,-359 475.9,-355.5 475.9,-362.5"/>
</g>
<!-- Node20&#45;&gt;Node21 -->
<g id="edge22" class="edge">
<title>Node20&#45;&gt;Node21</title>
<path fill="none" stroke="midnightblue" d="M298.32,-492.87C311.36,-495 325.26,-497.27 338.22,-499.38"/>
<polygon fill="midnightblue" stroke="midnightblue" points="337.95,-502.89 348.38,-501.04 339.08,-495.98 337.95,-502.89"/>
</g>
<!-- Node23 -->
<g id="node23" class="node">
<title>Node23</title>
<g id="a_node23"><a xlink:href="../../d9/d35/classrange__queries_1_1heavy__light__decomposition_1_1_s_g.html#a3c75bf5770790f8eba8cc92227b5400c" target="_top" xlink:title="Update the value at a node.">
<polygon fill="white" stroke="black" points="337,-561.5 337,-602.5 447,-602.5 447,-561.5 337,-561.5"/>
<text text-anchor="start" x="345" y="-590.5" font-family="Helvetica,sans-Serif" font-size="10.00">range_queries::heavy</text>
<text text-anchor="start" x="345" y="-579.5" font-family="Helvetica,sans-Serif" font-size="10.00">_light_decomposition</text>
<text text-anchor="middle" x="392" y="-568.5" font-family="Helvetica,sans-Serif" font-size="10.00">::SG::update</text>
</a>
</g>
</g>
<!-- Node22&#45;&gt;Node23 -->
<g id="edge25" class="edge">
<title>Node22&#45;&gt;Node23</title>
<path fill="none" stroke="midnightblue" d="M298.32,-582C307.57,-582 317.25,-582 326.73,-582"/>
<polygon fill="midnightblue" stroke="midnightblue" points="326.9,-585.5 336.9,-582 326.9,-578.5 326.9,-585.5"/>
</g>
<!-- Node24&#45;&gt;Node5 -->
<g id="edge27" class="edge">
<title>Node24&#45;&gt;Node5</title>
<path fill="none" stroke="midnightblue" d="M132.86,-457.78C139.13,-454.86 145.94,-451.48 152,-448 170.5,-437.39 190.1,-424.14 206.28,-412.62"/>
<polygon fill="midnightblue" stroke="midnightblue" points="208.33,-415.46 214.4,-406.77 204.24,-409.77 208.33,-415.46"/>
</g>
<!-- Node24&#45;&gt;Node6 -->
<g id="edge29" class="edge">
<title>Node24&#45;&gt;Node6</title>
<path fill="none" stroke="midnightblue" d="M132.68,-472.98C139.68,-475.89 146.97,-480.09 152,-486 189.75,-530.35 141.5,-576.93 188,-612 227.03,-641.44 258.88,-641.32 298,-612 343.58,-577.85 307.13,-539.23 334,-489 344.35,-469.65 360.83,-450.78 373.41,-437.85"/>
<polygon fill="midnightblue" stroke="midnightblue" points="376.05,-440.16 380.65,-430.61 371.11,-435.21 376.05,-440.16"/>
</g>
<!-- Node24&#45;&gt;Node7 -->
<g id="edge28" class="edge">
<title>Node24&#45;&gt;Node7</title>
<path fill="none" stroke="midnightblue" d="M132.56,-461.44C139.73,-458.55 147.14,-454.26 152,-448 204.68,-380.09 152.23,-336.15 188,-258 194.58,-243.63 204.82,-229.63 214.62,-218.1"/>
<polygon fill="midnightblue" stroke="midnightblue" points="217.3,-220.36 221.29,-210.55 212.05,-215.73 217.3,-220.36"/>
</g>
<!-- Node24&#45;&gt;Node15 -->
<g id="edge30" class="edge">
<title>Node24&#45;&gt;Node15</title>
<path fill="none" stroke="midnightblue" d="M132.79,-460.57C139.64,-457.64 146.8,-453.56 152,-448 182.01,-415.95 166.1,-394.06 188,-356 196,-342.09 206.68,-327.99 216.44,-316.27"/>
<polygon fill="midnightblue" stroke="midnightblue" points="219.18,-318.45 222.99,-308.56 213.85,-313.91 219.18,-318.45"/>
</g>
<!-- Node24&#45;&gt;Node20 -->
<g id="edge31" class="edge">
<title>Node24&#45;&gt;Node20</title>
<path fill="none" stroke="midnightblue" d="M132.76,-469.77C145.14,-471.38 161.47,-473.51 177.73,-475.63"/>
<polygon fill="midnightblue" stroke="midnightblue" points="177.44,-479.12 187.8,-476.94 178.34,-472.18 177.44,-479.12"/>
</g>
<!-- Node24&#45;&gt;Node21 -->
<g id="edge32" class="edge">
<title>Node24&#45;&gt;Node21</title>
<path fill="none" stroke="midnightblue" d="M132.87,-472.83C139.89,-475.73 147.13,-479.95 152,-486 197.41,-542.46 131.39,-599.78 188,-645 226.2,-675.51 257.67,-672.63 298,-645 334.56,-619.95 307.48,-587.51 334,-552 342.5,-540.62 354.68,-530.67 365.61,-523.13"/>
<polygon fill="midnightblue" stroke="midnightblue" points="367.56,-526.03 374,-517.61 363.72,-520.18 367.56,-526.03"/>
</g>
<!-- Node24&#45;&gt;Node22 -->
<g id="edge33" class="edge">
<title>Node24&#45;&gt;Node22</title>
<path fill="none" stroke="midnightblue" d="M132.72,-474.11C139.41,-477.06 146.48,-480.98 152,-486 175.29,-507.18 166.21,-524.28 188,-547 190.75,-549.87 193.78,-552.61 196.95,-555.21"/>
<polygon fill="midnightblue" stroke="midnightblue" points="194.99,-558.12 205.07,-561.38 199.22,-552.54 194.99,-558.12"/>
</g>
<!-- Node25&#45;&gt;Node5 -->
<g id="edge35" class="edge">
<title>Node25&#45;&gt;Node5</title>
<path fill="none" stroke="midnightblue" d="M132.76,-386C145.14,-386 161.47,-386 177.73,-386"/>
<polygon fill="midnightblue" stroke="midnightblue" points="177.8,-389.5 187.8,-386 177.8,-382.5 177.8,-389.5"/>
</g>
<!-- Node25&#45;&gt;Node6 -->
<g id="edge37" class="edge">
<title>Node25&#45;&gt;Node6</title>
<path fill="none" stroke="midnightblue" d="M132.55,-379.91C139.54,-376.98 146.85,-372.81 152,-367 185.85,-328.83 146.65,-287.89 188,-258 227.62,-229.36 259.12,-228.36 298,-258 346.02,-294.6 296.8,-341.44 334,-389 339.64,-396.21 347.38,-402.05 355.34,-406.67"/>
<polygon fill="midnightblue" stroke="midnightblue" points="353.84,-409.84 364.32,-411.38 357.09,-403.64 353.84,-409.84"/>
</g>
<!-- Node25&#45;&gt;Node7 -->
<g id="edge36" class="edge">
<title>Node25&#45;&gt;Node7</title>
<path fill="none" stroke="midnightblue" d="M132.78,-380.1C139.79,-377.2 147.06,-372.99 152,-367 193.45,-316.79 150.06,-277.91 188,-225 189.95,-222.28 192.19,-219.71 194.62,-217.3"/>
<polygon fill="midnightblue" stroke="midnightblue" points="197.13,-219.76 202.38,-210.55 192.53,-214.47 197.13,-219.76"/>
</g>
<!-- Node25&#45;&gt;Node15 -->
<g id="edge38" class="edge">
<title>Node25&#45;&gt;Node15</title>
<path fill="none" stroke="midnightblue" d="M132.71,-378.19C139.25,-375.24 146.24,-371.49 152,-367 171.93,-351.47 169.17,-339.85 188,-323 191.32,-320.03 194.92,-317.13 198.62,-314.36"/>
<polygon fill="midnightblue" stroke="midnightblue" points="200.73,-317.16 206.85,-308.51 196.67,-311.46 200.73,-317.16"/>
</g>
<!-- Node25&#45;&gt;Node20 -->
<g id="edge39" class="edge">
<title>Node25&#45;&gt;Node20</title>
<path fill="none" stroke="midnightblue" d="M129.21,-395.71C136.44,-399.87 144.77,-404.93 152,-410 172.35,-424.27 193.91,-441.89 210.82,-456.36"/>
<polygon fill="midnightblue" stroke="midnightblue" points="208.86,-459.3 218.72,-463.18 213.43,-454 208.86,-459.3"/>
</g>
<!-- Node25&#45;&gt;Node21 -->
<g id="edge40" class="edge">
<title>Node25&#45;&gt;Node21</title>
<path fill="none" stroke="midnightblue" d="M132.75,-376.63C151.38,-368.62 177.14,-358.05 188,-356 236.04,-346.92 257.19,-329.09 298,-356 331.91,-378.36 312.73,-405.4 334,-440 345.49,-458.69 361.84,-477.63 374.09,-490.76"/>
<polygon fill="midnightblue" stroke="midnightblue" points="371.67,-493.3 381.1,-498.13 376.74,-488.47 371.67,-493.3"/>
</g>
<!-- Node25&#45;&gt;Node22 -->
<g id="edge41" class="edge">
<title>Node25&#45;&gt;Node22</title>
<path fill="none" stroke="midnightblue" d="M132.53,-394.82C139.52,-398.62 146.83,-403.67 152,-410 182.93,-447.89 164.46,-471.13 188,-514 195.66,-527.96 206.2,-541.97 215.93,-553.62"/>
<polygon fill="midnightblue" stroke="midnightblue" points="213.32,-555.96 222.49,-561.28 218.64,-551.41 213.32,-555.96"/>
</g>
</g>
</svg>
        <g id="navigator" transform="translate(0 0)" fill="#404254">
                <rect fill="#f2f5e9" fill-opacity="0.5" stroke="#606060" stroke-width=".5" x="0" y="0" width="60" height="60"/>
                <use id="zoomplus" xlink:href="#zoomPlus" x="17" y="9" onmousedown="handleZoom(evt,'in')"/>
                <use id="zoomminus" xlink:href="#zoomMin" x="42" y="9" onmousedown="handleZoom(evt,'out')"/>
                <use id="reset" xlink:href="#resetDef" x="30" y="36" onmousedown="handleReset()"/>
                <g id="arrowUp" xlink:href="#dirArrow" transform="translate(30 24)" onmousedown="handlePan(0,-1)">
                  <use xlink:href="#rim" fill="#404040">
                        <set attributeName="fill" to="#808080" begin="arrowUp.mouseover" end="arrowUp.mouseout"/>
                  </use>
                  <path fill="none" stroke="white" stroke-width="1.5" d="M0,-3.0v7 M-2.5,-0.5L0,-3.0L2.5,-0.5"/>
                </g>
                <g id="arrowRight" xlink:href="#dirArrow" transform="rotate(90) translate(36 -43)" onmousedown="handlePan(1,0)">
                  <use xlink:href="#rim" fill="#404040">
                        <set attributeName="fill" to="#808080" begin="arrowRight.mouseover" end="arrowRight.mouseout"/>
                  </use>
                  <path fill="none" stroke="white" stroke-width="1.5" d="M0,-3.0v7 M-2.5,-0.5L0,-3.0L2.5,-0.5"/>
                </g>
                <g id="arrowDown" xlink:href="#dirArrow" transform="rotate(180) translate(-30 -48)" onmousedown="handlePan(0,1)">
                  <use xlink:href="#rim" fill="#404040">
                        <set attributeName="fill" to="#808080" begin="arrowDown.mouseover" end="arrowDown.mouseout"/>
                  </use>
                  <path fill="none" stroke="white" stroke-width="1.5" d="M0,-3.0v7 M-2.5,-0.5L0,-3.0L2.5,-0.5"/>
                </g>
                <g id="arrowLeft" xlink:href="#dirArrow" transform="rotate(270) translate(-36 17)" onmousedown="handlePan(-1,0)">
                  <use xlink:href="#rim" fill="#404040">
                        <set attributeName="fill" to="#808080" begin="arrowLeft.mouseover" end="arrowLeft.mouseout"/>
                  </use>
                  <path fill="none" stroke="white" stroke-width="1.5" d="M0,-3.0v7 M-2.5,-0.5L0,-3.0L2.5,-0.5"/>
                </g>
        </g>
        <svg viewBox="0 0 15 15" width="100%" height="30px" preserveAspectRatio="xMaxYMin meet">
         <g id="arrow_out" transform="scale(0.3 0.3)">
          <a xlink:href="integral__approximation_8cpp_aa8dca7b867074164d5f45b0f3851269d_cgraph_org.svg" target="_base">
           <rect id="button" ry="5" rx="5" y="6" x="6" height="38" width="38"
                fill="#f2f5e9" fill-opacity="0.5" stroke="#606060" stroke-width="1.0"/>
           <path id="arrow"
             d="M 11.500037,31.436501 C 11.940474,20.09759 22.043105,11.32322 32.158766,21.979434 L 37.068811,17.246167 C 37.068811,17.246167 37.088388,32 37.088388,32 L 22.160133,31.978069 C 22.160133,31.978069 26.997745,27.140456 26.997745,27.140456 C 18.528582,18.264221 13.291696,25.230495 11.500037,31.436501 z"
             style="fill:#404040;"/>
          </a>
         </g>
        </svg>
</svg>
