<?xml version="1.0" encoding="UTF-8" standalone="no"?>
<!DOCTYPE svg PUBLIC "-//W3C//DTD SVG 1.1//EN"
 "http://www.w3.org/Graphics/SVG/1.1/DTD/svg11.dtd">
<!-- Generated by graphviz version 2.47.0 (20210316.0004)
 -->
<!-- Title: main Pages: 1 -->
<!--zoomable 675 -->
<svg id="main" version="1.1" xmlns="http://www.w3.org/2000/svg" xmlns:xlink="http://www.w3.org/1999/xlink" xml:space="preserve" onload="init(evt)">
<style type="text/css"><![CDATA[
.edge:hover path { stroke: red; }
.edge:hover polygon { stroke: red; fill: red; }
]]></style>
<script type="text/javascript"><![CDATA[
var edges = document.getElementsByTagName('g');
if (edges && edges.length) {
  for (var i=0;i<edges.length;i++) {
    if (edges[i].id.substr(0,4)=='edge') {
      edges[i].setAttribute('class','edge');
    }
  }
}
]]></script>
        <defs>
                <circle id="rim" cx="0" cy="0" r="7"/>
                <circle id="rim2" cx="0" cy="0" r="3.5"/>
                <g id="zoomPlus">
                        <use xlink:href="#rim" fill="#404040">
                                <set attributeName="fill" to="#808080" begin="zoomplus.mouseover" end="zoomplus.mouseout"/>
                        </use>
                        <path d="M-4,0h8M0,-4v8" fill="none" stroke="white" stroke-width="1.5" pointer-events="none"/>
                </g>
                <g id="zoomMin">
                        <use xlink:href="#rim" fill="#404040">
                                <set attributeName="fill" to="#808080" begin="zoomminus.mouseover" end="zoomminus.mouseout"/>
                        </use>
                        <path d="M-4,0h8" fill="none" stroke="white" stroke-width="1.5" pointer-events="none"/>
                </g>
                <g id="dirArrow">
                        <path fill="none" stroke="white" stroke-width="1.5" d="M0,-3.0v7 M-2.5,-0.5L0,-3.0L2.5,-0.5"/>
                </g>
               <g id="resetDef">
                       <use xlink:href="#rim2" fill="#404040">
                               <set attributeName="fill" to="#808080" begin="reset.mouseover" end="reset.mouseout"/>
                       </use>
               </g>
        </defs>

<script type="text/javascript">
var viewWidth = 678;
var viewHeight = 675;
var sectionId = 'dynsection-1';
</script>
<script xlink:href="../../svgpan.js"/>
<svg id="graph" class="graph">
<g id="viewport">
<title>main</title>
<polygon fill="white" stroke="transparent" points="-4,4 -4,-670.99 674,-670.99 674,4 -4,4"/>
<!-- Node1 -->
<g id="node1" class="node">
<title>Node1</title>
<g id="a_node1"><a xlink:title="Main function.">
<polygon fill="#bfbfbf" stroke="black" points="0,-438.5 0,-457.5 38,-457.5 38,-438.5 0,-438.5"/>
<text text-anchor="middle" x="19" y="-445.5" font-family="Helvetica,sans-Serif" font-size="10.00">main</text>
</a>
</g>
</g>
<!-- Node2 -->
<g id="node2" class="node">
<title>Node2</title>
<g id="a_node2"><a xlink:href="../../d1/de9/integral__approximation_8cpp.html#aa8dca7b867074164d5f45b0f3851269d" target="_top" xlink:title="Self&#45;test implementations to test the integral_approx function.">
<polygon fill="white" stroke="black" points="74,-438.5 74,-457.5 107,-457.5 107,-438.5 74,-438.5"/>
<text text-anchor="middle" x="90.5" y="-445.5" font-family="Helvetica,sans-Serif" font-size="10.00">test</text>
</a>
</g>
</g>
<!-- Node1&#45;&gt;Node2 -->
<g id="edge1" class="edge">
<title>Node1&#45;&gt;Node2</title>
<path fill="none" stroke="midnightblue" d="M38.26,-448C46.07,-448 55.31,-448 63.79,-448"/>
<polygon fill="midnightblue" stroke="midnightblue" points="63.95,-451.5 73.95,-448 63.95,-444.5 63.95,-451.5"/>
</g>
<!-- Node3 -->
<g id="node3" class="node">
<title>Node3</title>
<g id="a_node3"><a target="_blank" xlink:href="http://en.cppreference.com/w/cpp/io/manip/endl.html#" xlink:title=" ">
<polygon fill="white" stroke="black" points="157.5,-533.5 157.5,-552.5 211.5,-552.5 211.5,-533.5 157.5,-533.5"/>
<text text-anchor="middle" x="184.5" y="-540.5" font-family="Helvetica,sans-Serif" font-size="10.00">std::endl</text>
</a>
</g>
</g>
<!-- Node2&#45;&gt;Node3 -->
<g id="edge2" class="edge">
<title>Node2&#45;&gt;Node3</title>
<path fill="none" stroke="midnightblue" d="M95.89,-457.62C103.49,-473.35 120.46,-504.74 143,-524 144.73,-525.48 146.59,-526.86 148.53,-528.16"/>
<polygon fill="midnightblue" stroke="midnightblue" points="146.99,-531.31 157.4,-533.29 150.5,-525.25 146.99,-531.31"/>
</g>
<!-- Node4 -->
<g id="node4" class="node">
<title>Node4</title>
<g id="a_node4"><a xlink:href="../../d1/de9/integral__approximation_8cpp.html#a7f4fb1b8f896a4d6c17877fbed0d8702" target="_top" xlink:title=" ">
<polygon fill="white" stroke="black" points="143,-495.5 143,-514.5 226,-514.5 226,-495.5 143,-495.5"/>
<text text-anchor="middle" x="184.5" y="-502.5" font-family="Helvetica,sans-Serif" font-size="10.00">integral_approx</text>
</a>
</g>
</g>
<!-- Node2&#45;&gt;Node4 -->
<g id="edge3" class="edge">
<title>Node2&#45;&gt;Node4</title>
<path fill="none" stroke="midnightblue" d="M103.31,-457.76C113.46,-465.89 128.68,-477.47 143,-486 145.8,-487.67 148.78,-489.3 151.79,-490.87"/>
<polygon fill="midnightblue" stroke="midnightblue" points="150.29,-494.03 160.81,-495.32 153.39,-487.75 150.29,-494.03"/>
</g>
<!-- Node5 -->
<g id="node5" class="node">
<title>Node5</title>
<g id="a_node5"><a xlink:href="../../d2/de9/heavy__light__decomposition_8cpp.html#a34b8683a2b429de5cce57e6d733ec817" target="_top" xlink:title=" ">
<polygon fill="white" stroke="black" points="162.5,-419.5 162.5,-438.5 206.5,-438.5 206.5,-419.5 162.5,-419.5"/>
<text text-anchor="middle" x="184.5" y="-426.5" font-family="Helvetica,sans-Serif" font-size="10.00">test_1</text>
</a>
</g>
</g>
<!-- Node2&#45;&gt;Node5 -->
<g id="edge4" class="edge">
<title>Node2&#45;&gt;Node5</title>
<path fill="none" stroke="midnightblue" d="M107.11,-444.78C119.44,-442.23 137.04,-438.6 152.24,-435.46"/>
<polygon fill="midnightblue" stroke="midnightblue" points="153.2,-438.83 162.29,-433.38 151.78,-431.98 153.2,-438.83"/>
</g>
<!-- Node25 -->
<g id="node25" class="node">
<title>Node25</title>
<g id="a_node25"><a xlink:href="../../d2/de9/heavy__light__decomposition_8cpp.html#a458410412185a5f09199deaff7157a8d" target="_top" xlink:title=" ">
<polygon fill="white" stroke="black" points="162.5,-457.5 162.5,-476.5 206.5,-476.5 206.5,-457.5 162.5,-457.5"/>
<text text-anchor="middle" x="184.5" y="-464.5" font-family="Helvetica,sans-Serif" font-size="10.00">test_2</text>
</a>
</g>
</g>
<!-- Node2&#45;&gt;Node25 -->
<g id="edge27" class="edge">
<title>Node2&#45;&gt;Node25</title>
<path fill="none" stroke="midnightblue" d="M107.11,-451.22C119.44,-453.77 137.04,-457.4 152.24,-460.54"/>
<polygon fill="midnightblue" stroke="midnightblue" points="151.78,-464.02 162.29,-462.62 153.2,-457.17 151.78,-464.02"/>
</g>
<!-- Node26 -->
<g id="node26" class="node">
<title>Node26</title>
<g id="a_node26"><a xlink:href="../../d2/de9/heavy__light__decomposition_8cpp.html#af31ec5409537703d9c8a47350386b32a" target="_top" xlink:title=" ">
<polygon fill="white" stroke="black" points="162.5,-376.5 162.5,-395.5 206.5,-395.5 206.5,-376.5 162.5,-376.5"/>
<text text-anchor="middle" x="184.5" y="-383.5" font-family="Helvetica,sans-Serif" font-size="10.00">test_3</text>
</a>
</g>
</g>
<!-- Node2&#45;&gt;Node26 -->
<g id="edge35" class="edge">
<title>Node2&#45;&gt;Node26</title>
<path fill="none" stroke="midnightblue" d="M103.95,-438.27C114.22,-430.37 129.29,-419.09 143,-410 147.57,-406.97 152.52,-403.89 157.34,-400.98"/>
<polygon fill="midnightblue" stroke="midnightblue" points="159.49,-403.77 166.32,-395.67 155.93,-397.75 159.49,-403.77"/>
</g>
<!-- Node27 -->
<g id="node27" class="node">
<title>Node27</title>
<g id="a_node27"><a xlink:href="../../d1/de9/integral__approximation_8cpp.html#adf3f76dd4de4df20ef53c611b924026e" target="_top" xlink:title="Wrapper to evaluate if the approximated value is within .XX% threshold of the exact value.">
<polygon fill="white" stroke="black" points="156.5,-338.5 156.5,-357.5 212.5,-357.5 212.5,-338.5 156.5,-338.5"/>
<text text-anchor="middle" x="184.5" y="-345.5" font-family="Helvetica,sans-Serif" font-size="10.00">test_eval</text>
</a>
</g>
</g>
<!-- Node2&#45;&gt;Node27 -->
<g id="edge43" class="edge">
<title>Node2&#45;&gt;Node27</title>
<path fill="none" stroke="midnightblue" d="M95.49,-438.27C102.73,-421.68 119.48,-387.69 143,-367 144.71,-365.5 146.55,-364.09 148.48,-362.78"/>
<polygon fill="midnightblue" stroke="midnightblue" points="150.45,-365.68 157.32,-357.61 146.92,-359.64 150.45,-365.68"/>
</g>
<!-- Node6 -->
<g id="node6" class="node">
<title>Node6</title>
<g id="a_node6"><a xlink:href="../../d1/d51/classrange__queries_1_1heavy__light__decomposition_1_1_tree.html#a79ab4601c4a95c0902ac04e779e5f54d" target="_top" xlink:title="Adds an undirected edge from node u to node v in the tree.">
<polygon fill="white" stroke="black" points="262,-365.5 262,-406.5 372,-406.5 372,-365.5 262,-365.5"/>
<text text-anchor="start" x="270" y="-394.5" font-family="Helvetica,sans-Serif" font-size="10.00">range_queries::heavy</text>
<text text-anchor="start" x="270" y="-383.5" font-family="Helvetica,sans-Serif" font-size="10.00">_light_decomposition</text>
<text text-anchor="middle" x="317" y="-372.5" font-family="Helvetica,sans-Serif" font-size="10.00">::Tree::add_edge</text>
</a>
</g>
</g>
<!-- Node5&#45;&gt;Node6 -->
<g id="edge5" class="edge">
<title>Node5&#45;&gt;Node6</title>
<path fill="none" stroke="midnightblue" d="M206.76,-422C219.26,-417.88 235.78,-412.43 252.19,-407.03"/>
<polygon fill="midnightblue" stroke="midnightblue" points="253.4,-410.31 261.8,-403.86 251.21,-403.66 253.4,-410.31"/>
</g>
<!-- Node7 -->
<g id="node7" class="node">
<title>Node7</title>
<g id="a_node7"><a target="_blank" xlink:href="http://en.cppreference.com/w/cpp/container/vector/push_back.html#" xlink:title=" ">
<polygon fill="white" stroke="black" points="408,-411.5 408,-430.5 524,-430.5 524,-411.5 408,-411.5"/>
<text text-anchor="middle" x="466" y="-418.5" font-family="Helvetica,sans-Serif" font-size="10.00">std::vector::push_back</text>
</a>
</g>
</g>
<!-- Node5&#45;&gt;Node7 -->
<g id="edge15" class="edge">
<title>Node5&#45;&gt;Node7</title>
<path fill="none" stroke="midnightblue" d="M206.51,-428.4C246.55,-427.25 335.37,-424.71 397.67,-422.93"/>
<polygon fill="midnightblue" stroke="midnightblue" points="397.91,-426.42 407.81,-422.64 397.71,-419.42 397.91,-426.42"/>
</g>
<!-- Node8 -->
<g id="node8" class="node">
<title>Node8</title>
<g id="a_node8"><a xlink:href="../../d2/d8a/classrange__queries_1_1heavy__light__decomposition_1_1_h_l_d.html#ae9e979edd69678b85665c01e2ee97828" target="_top" xlink:title="This function must be called after the tree adjacency list and node values are populated The function...">
<polygon fill="white" stroke="black" points="262,-169.5 262,-210.5 372,-210.5 372,-169.5 262,-169.5"/>
<text text-anchor="start" x="270" y="-198.5" font-family="Helvetica,sans-Serif" font-size="10.00">range_queries::heavy</text>
<text text-anchor="start" x="270" y="-187.5" font-family="Helvetica,sans-Serif" font-size="10.00">_light_decomposition</text>
<text text-anchor="middle" x="317" y="-176.5" font-family="Helvetica,sans-Serif" font-size="10.00">::HLD::init</text>
</a>
</g>
</g>
<!-- Node5&#45;&gt;Node8 -->
<g id="edge7" class="edge">
<title>Node5&#45;&gt;Node8</title>
<path fill="none" stroke="midnightblue" d="M206.87,-420.44C213.89,-416.66 221.13,-411.57 226,-405 266.06,-350.97 232.4,-318.4 262,-258 268.95,-243.81 279.26,-229.84 289.02,-218.29"/>
<polygon fill="midnightblue" stroke="midnightblue" points="291.7,-220.54 295.63,-210.71 286.42,-215.94 291.7,-220.54"/>
</g>
<!-- Node16 -->
<g id="node16" class="node">
<title>Node16</title>
<g id="a_node16"><a xlink:href="../../d2/d8a/classrange__queries_1_1heavy__light__decomposition_1_1_h_l_d.html#a4dfbf5d9df825eeb63b294c6849bdcab" target="_top" xlink:title="This function returns the sum of node values in the simple path from from node_1 to node_2.">
<polygon fill="white" stroke="black" points="262,-267.5 262,-308.5 372,-308.5 372,-267.5 262,-267.5"/>
<text text-anchor="start" x="270" y="-296.5" font-family="Helvetica,sans-Serif" font-size="10.00">range_queries::heavy</text>
<text text-anchor="start" x="270" y="-285.5" font-family="Helvetica,sans-Serif" font-size="10.00">_light_decomposition</text>
<text text-anchor="middle" x="317" y="-274.5" font-family="Helvetica,sans-Serif" font-size="10.00">::HLD::query</text>
</a>
</g>
</g>
<!-- Node5&#45;&gt;Node16 -->
<g id="edge16" class="edge">
<title>Node5&#45;&gt;Node16</title>
<path fill="none" stroke="midnightblue" d="M205.13,-419.47C212.14,-415.54 219.82,-410.6 226,-405 246.03,-386.86 245.59,-377.47 262,-356 271.96,-342.96 283.22,-328.71 292.87,-316.64"/>
<polygon fill="midnightblue" stroke="midnightblue" points="295.73,-318.67 299.25,-308.67 290.27,-314.29 295.73,-318.67"/>
</g>
<!-- Node21 -->
<g id="node21" class="node">
<title>Node21</title>
<g id="a_node21"><a xlink:href="../../d1/d51/classrange__queries_1_1heavy__light__decomposition_1_1_tree.html#a04cd96efaba147b19d3afc769b90ff70" target="_top" xlink:title="Set the values for all the nodes.">
<polygon fill="white" stroke="black" points="262,-463.5 262,-504.5 372,-504.5 372,-463.5 262,-463.5"/>
<text text-anchor="start" x="270" y="-492.5" font-family="Helvetica,sans-Serif" font-size="10.00">range_queries::heavy</text>
<text text-anchor="start" x="270" y="-481.5" font-family="Helvetica,sans-Serif" font-size="10.00">_light_decomposition</text>
<text text-anchor="middle" x="317" y="-470.5" font-family="Helvetica,sans-Serif" font-size="10.00">::Tree::set_node_val</text>
</a>
</g>
</g>
<!-- Node5&#45;&gt;Node21 -->
<g id="edge22" class="edge">
<title>Node5&#45;&gt;Node21</title>
<path fill="none" stroke="midnightblue" d="M206.76,-437.96C220.66,-443.82 239.54,-451.78 257.7,-459.43"/>
<polygon fill="midnightblue" stroke="midnightblue" points="256.53,-462.73 267.1,-463.39 259.24,-456.28 256.53,-462.73"/>
</g>
<!-- Node22 -->
<g id="node22" class="node">
<title>Node22</title>
<g id="a_node22"><a target="_blank" xlink:href="http://en.cppreference.com/w/cpp/container/vector/size.html#" xlink:title=" ">
<polygon fill="white" stroke="black" points="422.5,-498.5 422.5,-517.5 509.5,-517.5 509.5,-498.5 422.5,-498.5"/>
<text text-anchor="middle" x="466" y="-505.5" font-family="Helvetica,sans-Serif" font-size="10.00">std::vector::size</text>
</a>
</g>
</g>
<!-- Node5&#45;&gt;Node22 -->
<g id="edge24" class="edge">
<title>Node5&#45;&gt;Node22</title>
<path fill="none" stroke="midnightblue" d="M206.82,-436C213.52,-438.94 220.57,-442.89 226,-448 250.33,-470.9 233.27,-496.94 262,-514 312.94,-544.24 384.47,-532.2 427.61,-520.35"/>
<polygon fill="midnightblue" stroke="midnightblue" points="428.77,-523.66 437.41,-517.53 426.83,-516.93 428.77,-523.66"/>
</g>
<!-- Node23 -->
<g id="node23" class="node">
<title>Node23</title>
<g id="a_node23"><a xlink:href="../../d2/d8a/classrange__queries_1_1heavy__light__decomposition_1_1_h_l_d.html#a9f1cb54ed09fde931bf3220d75ee4c57" target="_top" xlink:title="This function updates the value at node with val.">
<polygon fill="white" stroke="black" points="262,-561.5 262,-602.5 372,-602.5 372,-561.5 262,-561.5"/>
<text text-anchor="start" x="270" y="-590.5" font-family="Helvetica,sans-Serif" font-size="10.00">range_queries::heavy</text>
<text text-anchor="start" x="270" y="-579.5" font-family="Helvetica,sans-Serif" font-size="10.00">_light_decomposition</text>
<text text-anchor="middle" x="317" y="-568.5" font-family="Helvetica,sans-Serif" font-size="10.00">::HLD::update</text>
</a>
</g>
</g>
<!-- Node5&#45;&gt;Node23 -->
<g id="edge25" class="edge">
<title>Node5&#45;&gt;Node23</title>
<path fill="none" stroke="midnightblue" d="M206.87,-435.36C213.73,-438.28 220.87,-442.38 226,-448 257.59,-482.56 232.84,-510.37 262,-547 264.12,-549.67 266.5,-552.19 269.06,-554.58"/>
<polygon fill="midnightblue" stroke="midnightblue" points="267.2,-557.59 277.12,-561.3 271.68,-552.21 267.2,-557.59"/>
</g>
<!-- Node6&#45;&gt;Node7 -->
<g id="edge6" class="edge">
<title>Node6&#45;&gt;Node7</title>
<path fill="none" stroke="midnightblue" d="M372.32,-398.93C386.27,-402.26 401.22,-405.81 414.94,-409.08"/>
<polygon fill="midnightblue" stroke="midnightblue" points="414.15,-412.49 424.69,-411.4 415.77,-405.68 414.15,-412.49"/>
</g>
<!-- Node9 -->
<g id="node9" class="node">
<title>Node9</title>
<g id="a_node9"><a xlink:href="../../d9/d35/classrange__queries_1_1heavy__light__decomposition_1_1_s_g.html#a41c733f5f5e262b308f7cb95c88c1e74" target="_top" xlink:title="Function that specifies the type of operation involved when segments are combined.">
<polygon fill="white" stroke="black" points="560,-199.5 560,-240.5 670,-240.5 670,-199.5 560,-199.5"/>
<text text-anchor="start" x="568" y="-228.5" font-family="Helvetica,sans-Serif" font-size="10.00">range_queries::heavy</text>
<text text-anchor="start" x="568" y="-217.5" font-family="Helvetica,sans-Serif" font-size="10.00">_light_decomposition</text>
<text text-anchor="middle" x="615" y="-206.5" font-family="Helvetica,sans-Serif" font-size="10.00">::SG::combine</text>
</a>
</g>
</g>
<!-- Node8&#45;&gt;Node9 -->
<g id="edge8" class="edge">
<title>Node8&#45;&gt;Node9</title>
<path fill="none" stroke="midnightblue" d="M372.26,-194.56C413.82,-198.16 472.58,-203.49 524,-209 532.32,-209.89 541.08,-210.89 549.72,-211.91"/>
<polygon fill="midnightblue" stroke="midnightblue" points="549.43,-215.4 559.77,-213.11 550.26,-208.45 549.43,-215.4"/>
</g>
<!-- Node10 -->
<g id="node10" class="node">
<title>Node10</title>
<g id="a_node10"><a xlink:href="../../d2/d8a/classrange__queries_1_1heavy__light__decomposition_1_1_h_l_d.html#af64848d6630c39d0f09ce2359cc7c4f8" target="_top" xlink:title="Utility function to assign heavy child to each node (&#45;1 for a leaf node)">
<polygon fill="white" stroke="black" points="411,-0.5 411,-41.5 521,-41.5 521,-0.5 411,-0.5"/>
<text text-anchor="start" x="419" y="-29.5" font-family="Helvetica,sans-Serif" font-size="10.00">range_queries::heavy</text>
<text text-anchor="start" x="419" y="-18.5" font-family="Helvetica,sans-Serif" font-size="10.00">_light_decomposition</text>
<text text-anchor="middle" x="466" y="-7.5" font-family="Helvetica,sans-Serif" font-size="10.00">::HLD::dfs_hc</text>
</a>
</g>
</g>
<!-- Node8&#45;&gt;Node10 -->
<g id="edge9" class="edge">
<title>Node8&#45;&gt;Node10</title>
<path fill="none" stroke="midnightblue" d="M327.22,-169.26C341.14,-139.84 370.01,-85.71 408,-51 409.28,-49.83 410.61,-48.7 411.98,-47.59"/>
<polygon fill="midnightblue" stroke="midnightblue" points="414.18,-50.32 420.24,-41.63 410.08,-44.65 414.18,-50.32"/>
</g>
<!-- Node11 -->
<g id="node11" class="node">
<title>Node11</title>
<g id="a_node11"><a xlink:href="../../d2/d8a/classrange__queries_1_1heavy__light__decomposition_1_1_h_l_d.html#a0579062b384e54b611b80c6337c7f2c8" target="_top" xlink:title="Utility function to lable the nodes so that heavy chains have a contigous lable.">
<polygon fill="white" stroke="black" points="411,-218.5 411,-259.5 521,-259.5 521,-218.5 411,-218.5"/>
<text text-anchor="start" x="419" y="-247.5" font-family="Helvetica,sans-Serif" font-size="10.00">range_queries::heavy</text>
<text text-anchor="start" x="419" y="-236.5" font-family="Helvetica,sans-Serif" font-size="10.00">_light_decomposition</text>
<text text-anchor="middle" x="466" y="-225.5" font-family="Helvetica,sans-Serif" font-size="10.00">::HLD::dfs_labels</text>
</a>
</g>
</g>
<!-- Node8&#45;&gt;Node11 -->
<g id="edge10" class="edge">
<title>Node8&#45;&gt;Node11</title>
<path fill="none" stroke="midnightblue" d="M372.32,-208.11C381.77,-211.26 391.67,-214.56 401.34,-217.78"/>
<polygon fill="midnightblue" stroke="midnightblue" points="400.31,-221.13 410.9,-220.97 402.52,-214.49 400.31,-221.13"/>
</g>
<!-- Node12 -->
<g id="node12" class="node">
<title>Node12</title>
<g id="a_node12"><a xlink:href="../../d2/d8a/classrange__queries_1_1heavy__light__decomposition_1_1_h_l_d.html#a2dfbda148aad0bfaba2ebfda9ebc915a" target="_top" xlink:title="Utility function to assign highest parent that can be reached though heavy chains.">
<polygon fill="white" stroke="black" points="411,-120.5 411,-161.5 521,-161.5 521,-120.5 411,-120.5"/>
<text text-anchor="start" x="419" y="-149.5" font-family="Helvetica,sans-Serif" font-size="10.00">range_queries::heavy</text>
<text text-anchor="start" x="419" y="-138.5" font-family="Helvetica,sans-Serif" font-size="10.00">_light_decomposition</text>
<text text-anchor="middle" x="466" y="-127.5" font-family="Helvetica,sans-Serif" font-size="10.00">::HLD::dfs_par</text>
</a>
</g>
</g>
<!-- Node8&#45;&gt;Node12 -->
<g id="edge11" class="edge">
<title>Node8&#45;&gt;Node12</title>
<path fill="none" stroke="midnightblue" d="M372.32,-171.89C381.77,-168.74 391.67,-165.44 401.34,-162.22"/>
<polygon fill="midnightblue" stroke="midnightblue" points="402.52,-165.51 410.9,-159.03 400.31,-158.87 402.52,-165.51"/>
</g>
<!-- Node13 -->
<g id="node13" class="node">
<title>Node13</title>
<g id="a_node13"><a xlink:href="../../d1/d51/classrange__queries_1_1heavy__light__decomposition_1_1_tree.html#ad22d760a5a33545a70e7ea5e1786c8dc" target="_top" xlink:title="This function must be called after the tree adjacency list and node values are populated The function...">
<polygon fill="white" stroke="black" points="411,-60.5 411,-101.5 521,-101.5 521,-60.5 411,-60.5"/>
<text text-anchor="start" x="419" y="-89.5" font-family="Helvetica,sans-Serif" font-size="10.00">range_queries::heavy</text>
<text text-anchor="start" x="419" y="-78.5" font-family="Helvetica,sans-Serif" font-size="10.00">_light_decomposition</text>
<text text-anchor="middle" x="466" y="-67.5" font-family="Helvetica,sans-Serif" font-size="10.00">::Tree::init</text>
</a>
</g>
</g>
<!-- Node8&#45;&gt;Node13 -->
<g id="edge12" class="edge">
<title>Node8&#45;&gt;Node13</title>
<path fill="none" stroke="midnightblue" d="M338.65,-169.33C356.17,-152.44 382.48,-128.55 408,-111 410.1,-109.56 412.27,-108.14 414.49,-106.74"/>
<polygon fill="midnightblue" stroke="midnightblue" points="416.44,-109.65 423.23,-101.51 412.85,-103.64 416.44,-109.65"/>
</g>
<!-- Node14 -->
<g id="node14" class="node">
<title>Node14</title>
<g id="a_node14"><a xlink:href="../../d1/d51/classrange__queries_1_1heavy__light__decomposition_1_1_tree.html#ae8de7aefcb6635d3dacdd174cd4890c4" target="_top" xlink:title="Utility function to populate the t_par vector.">
<polygon fill="white" stroke="black" points="560,-30.5 560,-71.5 670,-71.5 670,-30.5 560,-30.5"/>
<text text-anchor="start" x="568" y="-59.5" font-family="Helvetica,sans-Serif" font-size="10.00">range_queries::heavy</text>
<text text-anchor="start" x="568" y="-48.5" font-family="Helvetica,sans-Serif" font-size="10.00">_light_decomposition</text>
<text text-anchor="middle" x="615" y="-37.5" font-family="Helvetica,sans-Serif" font-size="10.00">::Tree::dfs_lca</text>
</a>
</g>
</g>
<!-- Node13&#45;&gt;Node14 -->
<g id="edge13" class="edge">
<title>Node13&#45;&gt;Node14</title>
<path fill="none" stroke="midnightblue" d="M521.32,-69.91C530.67,-68.01 540.46,-66.01 550.03,-64.05"/>
<polygon fill="midnightblue" stroke="midnightblue" points="550.81,-67.47 559.9,-62.04 549.41,-60.61 550.81,-67.47"/>
</g>
<!-- Node15 -->
<g id="node15" class="node">
<title>Node15</title>
<g id="a_node15"><a xlink:href="../../d1/d51/classrange__queries_1_1heavy__light__decomposition_1_1_tree.html#aa339c31ec74cd86a4842a8b09653d460" target="_top" xlink:title="Utility function to compute sub&#45;tree sizes.">
<polygon fill="white" stroke="black" points="560,-90.5 560,-131.5 670,-131.5 670,-90.5 560,-90.5"/>
<text text-anchor="start" x="568" y="-119.5" font-family="Helvetica,sans-Serif" font-size="10.00">range_queries::heavy</text>
<text text-anchor="start" x="568" y="-108.5" font-family="Helvetica,sans-Serif" font-size="10.00">_light_decomposition</text>
<text text-anchor="middle" x="615" y="-97.5" font-family="Helvetica,sans-Serif" font-size="10.00">::Tree::dfs_size</text>
</a>
</g>
</g>
<!-- Node13&#45;&gt;Node15 -->
<g id="edge14" class="edge">
<title>Node13&#45;&gt;Node15</title>
<path fill="none" stroke="midnightblue" d="M521.32,-92.09C530.67,-93.99 540.46,-95.99 550.03,-97.95"/>
<polygon fill="midnightblue" stroke="midnightblue" points="549.41,-101.39 559.9,-99.96 550.81,-94.53 549.41,-101.39"/>
</g>
<!-- Node17 -->
<g id="node17" class="node">
<title>Node17</title>
<g id="a_node17"><a xlink:href="../../d2/d8a/classrange__queries_1_1heavy__light__decomposition_1_1_h_l_d.html#a7d5b40c076347a6aabfb37a0590f2f24" target="_top" xlink:title="Utility function to break down a path query into two chain queries.">
<polygon fill="white" stroke="black" points="411,-278.5 411,-319.5 521,-319.5 521,-278.5 411,-278.5"/>
<text text-anchor="start" x="419" y="-307.5" font-family="Helvetica,sans-Serif" font-size="10.00">range_queries::heavy</text>
<text text-anchor="start" x="419" y="-296.5" font-family="Helvetica,sans-Serif" font-size="10.00">_light_decomposition</text>
<text text-anchor="middle" x="466" y="-285.5" font-family="Helvetica,sans-Serif" font-size="10.00">::HLD::chain_query</text>
</a>
</g>
</g>
<!-- Node16&#45;&gt;Node17 -->
<g id="edge17" class="edge">
<title>Node16&#45;&gt;Node17</title>
<path fill="none" stroke="midnightblue" d="M372.32,-292.06C381.57,-292.76 391.25,-293.48 400.73,-294.19"/>
<polygon fill="midnightblue" stroke="midnightblue" points="400.67,-297.7 410.9,-294.95 401.19,-290.72 400.67,-297.7"/>
</g>
<!-- Node19 -->
<g id="node19" class="node">
<title>Node19</title>
<g id="a_node19"><a xlink:href="../../d1/d51/classrange__queries_1_1heavy__light__decomposition_1_1_tree.html#ae2b407e64aaf9878fbee7ee6efe9c7d4" target="_top" xlink:title="The function returns the least common ancestor of two nodes.">
<polygon fill="white" stroke="black" points="411,-338.5 411,-379.5 521,-379.5 521,-338.5 411,-338.5"/>
<text text-anchor="start" x="419" y="-367.5" font-family="Helvetica,sans-Serif" font-size="10.00">range_queries::heavy</text>
<text text-anchor="start" x="419" y="-356.5" font-family="Helvetica,sans-Serif" font-size="10.00">_light_decomposition</text>
<text text-anchor="middle" x="466" y="-345.5" font-family="Helvetica,sans-Serif" font-size="10.00">::Tree::lca</text>
</a>
</g>
</g>
<!-- Node16&#45;&gt;Node19 -->
<g id="edge20" class="edge">
<title>Node16&#45;&gt;Node19</title>
<path fill="none" stroke="midnightblue" d="M360.52,-308.54C376.9,-316.45 395.8,-325.58 412.98,-333.88"/>
<polygon fill="midnightblue" stroke="midnightblue" points="411.8,-337.19 422.32,-338.39 414.84,-330.89 411.8,-337.19"/>
</g>
<!-- Node17&#45;&gt;Node9 -->
<g id="edge18" class="edge">
<title>Node17&#45;&gt;Node9</title>
<path fill="none" stroke="midnightblue" d="M506.29,-278.42C512.23,-275.28 518.28,-272.06 524,-269 538.15,-261.42 553.51,-253.1 567.46,-245.5"/>
<polygon fill="midnightblue" stroke="midnightblue" points="569.3,-248.48 576.41,-240.62 565.95,-242.34 569.3,-248.48"/>
</g>
<!-- Node18 -->
<g id="node18" class="node">
<title>Node18</title>
<g id="a_node18"><a target="_blank" xlink:href="http://en.cppreference.com/w/cpp/algorithm/swap.html#" xlink:title=" ">
<polygon fill="white" stroke="black" points="585.5,-289.5 585.5,-308.5 644.5,-308.5 644.5,-289.5 585.5,-289.5"/>
<text text-anchor="middle" x="615" y="-296.5" font-family="Helvetica,sans-Serif" font-size="10.00">std::swap</text>
</a>
</g>
</g>
<!-- Node17&#45;&gt;Node18 -->
<g id="edge19" class="edge">
<title>Node17&#45;&gt;Node18</title>
<path fill="none" stroke="midnightblue" d="M521.32,-299C539.17,-299 558.63,-299 575.1,-299"/>
<polygon fill="midnightblue" stroke="midnightblue" points="575.44,-302.5 585.44,-299 575.44,-295.5 575.44,-302.5"/>
</g>
<!-- Node20 -->
<g id="node20" class="node">
<title>Node20</title>
<g id="a_node20"><a xlink:href="../../d1/d51/classrange__queries_1_1heavy__light__decomposition_1_1_tree.html#ac7761255f2ba06b398b9aae5e4dce5f3" target="_top" xlink:title="The function lifts a node, k units up the tree. The lifting is done in place, and the result is store...">
<polygon fill="white" stroke="black" points="560,-338.5 560,-379.5 670,-379.5 670,-338.5 560,-338.5"/>
<text text-anchor="start" x="568" y="-367.5" font-family="Helvetica,sans-Serif" font-size="10.00">range_queries::heavy</text>
<text text-anchor="start" x="568" y="-356.5" font-family="Helvetica,sans-Serif" font-size="10.00">_light_decomposition</text>
<text text-anchor="middle" x="615" y="-345.5" font-family="Helvetica,sans-Serif" font-size="10.00">::Tree::lift</text>
</a>
</g>
</g>
<!-- Node19&#45;&gt;Node20 -->
<g id="edge21" class="edge">
<title>Node19&#45;&gt;Node20</title>
<path fill="none" stroke="midnightblue" d="M521.32,-359C530.57,-359 540.25,-359 549.73,-359"/>
<polygon fill="midnightblue" stroke="midnightblue" points="549.9,-362.5 559.9,-359 549.9,-355.5 549.9,-362.5"/>
</g>
<!-- Node21&#45;&gt;Node22 -->
<g id="edge23" class="edge">
<title>Node21&#45;&gt;Node22</title>
<path fill="none" stroke="midnightblue" d="M372.32,-492.87C385.36,-495 399.26,-497.27 412.22,-499.38"/>
<polygon fill="midnightblue" stroke="midnightblue" points="411.95,-502.89 422.38,-501.04 413.08,-495.98 411.95,-502.89"/>
</g>
<!-- Node24 -->
<g id="node24" class="node">
<title>Node24</title>
<g id="a_node24"><a xlink:href="../../d9/d35/classrange__queries_1_1heavy__light__decomposition_1_1_s_g.html#a3c75bf5770790f8eba8cc92227b5400c" target="_top" xlink:title="Update the value at a node.">
<polygon fill="white" stroke="black" points="411,-561.5 411,-602.5 521,-602.5 521,-561.5 411,-561.5"/>
<text text-anchor="start" x="419" y="-590.5" font-family="Helvetica,sans-Serif" font-size="10.00">range_queries::heavy</text>
<text text-anchor="start" x="419" y="-579.5" font-family="Helvetica,sans-Serif" font-size="10.00">_light_decomposition</text>
<text text-anchor="middle" x="466" y="-568.5" font-family="Helvetica,sans-Serif" font-size="10.00">::SG::update</text>
</a>
</g>
</g>
<!-- Node23&#45;&gt;Node24 -->
<g id="edge26" class="edge">
<title>Node23&#45;&gt;Node24</title>
<path fill="none" stroke="midnightblue" d="M372.32,-582C381.57,-582 391.25,-582 400.73,-582"/>
<polygon fill="midnightblue" stroke="midnightblue" points="400.9,-585.5 410.9,-582 400.9,-578.5 400.9,-585.5"/>
</g>
<!-- Node25&#45;&gt;Node6 -->
<g id="edge28" class="edge">
<title>Node25&#45;&gt;Node6</title>
<path fill="none" stroke="midnightblue" d="M206.86,-457.78C213.13,-454.86 219.94,-451.48 226,-448 244.5,-437.39 264.1,-424.14 280.28,-412.62"/>
<polygon fill="midnightblue" stroke="midnightblue" points="282.33,-415.46 288.4,-406.77 278.24,-409.77 282.33,-415.46"/>
</g>
<!-- Node25&#45;&gt;Node7 -->
<g id="edge30" class="edge">
<title>Node25&#45;&gt;Node7</title>
<path fill="none" stroke="midnightblue" d="M206.68,-472.98C213.68,-475.89 220.97,-480.09 226,-486 263.75,-530.35 215.5,-576.93 262,-612 301.03,-641.44 332.88,-641.32 372,-612 417.58,-577.85 381.13,-539.23 408,-489 418.35,-469.65 434.83,-450.78 447.41,-437.85"/>
<polygon fill="midnightblue" stroke="midnightblue" points="450.05,-440.16 454.65,-430.61 445.11,-435.21 450.05,-440.16"/>
</g>
<!-- Node25&#45;&gt;Node8 -->
<g id="edge29" class="edge">
<title>Node25&#45;&gt;Node8</title>
<path fill="none" stroke="midnightblue" d="M206.56,-461.44C213.73,-458.55 221.14,-454.26 226,-448 278.68,-380.09 226.23,-336.15 262,-258 268.58,-243.63 278.82,-229.63 288.62,-218.1"/>
<polygon fill="midnightblue" stroke="midnightblue" points="291.3,-220.36 295.29,-210.55 286.05,-215.73 291.3,-220.36"/>
</g>
<!-- Node25&#45;&gt;Node16 -->
<g id="edge31" class="edge">
<title>Node25&#45;&gt;Node16</title>
<path fill="none" stroke="midnightblue" d="M206.79,-460.57C213.64,-457.64 220.8,-453.56 226,-448 256.01,-415.95 240.1,-394.06 262,-356 270,-342.09 280.68,-327.99 290.44,-316.27"/>
<polygon fill="midnightblue" stroke="midnightblue" points="293.18,-318.45 296.99,-308.56 287.85,-313.91 293.18,-318.45"/>
</g>
<!-- Node25&#45;&gt;Node21 -->
<g id="edge32" class="edge">
<title>Node25&#45;&gt;Node21</title>
<path fill="none" stroke="midnightblue" d="M206.76,-469.77C219.14,-471.38 235.47,-473.51 251.73,-475.63"/>
<polygon fill="midnightblue" stroke="midnightblue" points="251.44,-479.12 261.8,-476.94 252.34,-472.18 251.44,-479.12"/>
</g>
<!-- Node25&#45;&gt;Node22 -->
<g id="edge33" class="edge">
<title>Node25&#45;&gt;Node22</title>
<path fill="none" stroke="midnightblue" d="M206.87,-472.83C213.89,-475.73 221.13,-479.95 226,-486 271.41,-542.46 205.39,-599.78 262,-645 300.2,-675.51 331.67,-672.63 372,-645 408.56,-619.95 381.48,-587.51 408,-552 416.5,-540.62 428.68,-530.67 439.61,-523.13"/>
<polygon fill="midnightblue" stroke="midnightblue" points="441.56,-526.03 448,-517.61 437.72,-520.18 441.56,-526.03"/>
</g>
<!-- Node25&#45;&gt;Node23 -->
<g id="edge34" class="edge">
<title>Node25&#45;&gt;Node23</title>
<path fill="none" stroke="midnightblue" d="M206.72,-474.11C213.41,-477.06 220.48,-480.98 226,-486 249.29,-507.18 240.21,-524.28 262,-547 264.75,-549.87 267.78,-552.61 270.95,-555.21"/>
<polygon fill="midnightblue" stroke="midnightblue" points="268.99,-558.12 279.07,-561.38 273.22,-552.54 268.99,-558.12"/>
</g>
<!-- Node26&#45;&gt;Node6 -->
<g id="edge36" class="edge">
<title>Node26&#45;&gt;Node6</title>
<path fill="none" stroke="midnightblue" d="M206.76,-386C219.14,-386 235.47,-386 251.73,-386"/>
<polygon fill="midnightblue" stroke="midnightblue" points="251.8,-389.5 261.8,-386 251.8,-382.5 251.8,-389.5"/>
</g>
<!-- Node26&#45;&gt;Node7 -->
<g id="edge38" class="edge">
<title>Node26&#45;&gt;Node7</title>
<path fill="none" stroke="midnightblue" d="M206.55,-379.91C213.54,-376.98 220.85,-372.81 226,-367 259.85,-328.83 220.65,-287.89 262,-258 301.62,-229.36 333.12,-228.36 372,-258 420.02,-294.6 370.8,-341.44 408,-389 413.64,-396.21 421.38,-402.05 429.34,-406.67"/>
<polygon fill="midnightblue" stroke="midnightblue" points="427.84,-409.84 438.32,-411.38 431.09,-403.64 427.84,-409.84"/>
</g>
<!-- Node26&#45;&gt;Node8 -->
<g id="edge37" class="edge">
<title>Node26&#45;&gt;Node8</title>
<path fill="none" stroke="midnightblue" d="M206.78,-380.1C213.79,-377.2 221.06,-372.99 226,-367 267.45,-316.79 224.06,-277.91 262,-225 263.95,-222.28 266.19,-219.71 268.62,-217.3"/>
<polygon fill="midnightblue" stroke="midnightblue" points="271.13,-219.76 276.38,-210.55 266.53,-214.47 271.13,-219.76"/>
</g>
<!-- Node26&#45;&gt;Node16 -->
<g id="edge39" class="edge">
<title>Node26&#45;&gt;Node16</title>
<path fill="none" stroke="midnightblue" d="M206.71,-378.19C213.25,-375.24 220.24,-371.49 226,-367 245.93,-351.47 243.17,-339.85 262,-323 265.32,-320.03 268.92,-317.13 272.62,-314.36"/>
<polygon fill="midnightblue" stroke="midnightblue" points="274.73,-317.16 280.85,-308.51 270.67,-311.46 274.73,-317.16"/>
</g>
<!-- Node26&#45;&gt;Node21 -->
<g id="edge40" class="edge">
<title>Node26&#45;&gt;Node21</title>
<path fill="none" stroke="midnightblue" d="M203.21,-395.71C210.44,-399.87 218.77,-404.93 226,-410 246.35,-424.27 267.91,-441.89 284.82,-456.36"/>
<polygon fill="midnightblue" stroke="midnightblue" points="282.86,-459.3 292.72,-463.18 287.43,-454 282.86,-459.3"/>
</g>
<!-- Node26&#45;&gt;Node22 -->
<g id="edge41" class="edge">
<title>Node26&#45;&gt;Node22</title>
<path fill="none" stroke="midnightblue" d="M206.75,-376.63C225.38,-368.62 251.14,-358.05 262,-356 310.04,-346.92 331.19,-329.09 372,-356 405.91,-378.36 386.73,-405.4 408,-440 419.49,-458.69 435.84,-477.63 448.09,-490.76"/>
<polygon fill="midnightblue" stroke="midnightblue" points="445.67,-493.3 455.1,-498.13 450.74,-488.47 445.67,-493.3"/>
</g>
<!-- Node26&#45;&gt;Node23 -->
<g id="edge42" class="edge">
<title>Node26&#45;&gt;Node23</title>
<path fill="none" stroke="midnightblue" d="M206.53,-394.82C213.52,-398.62 220.83,-403.67 226,-410 256.93,-447.89 238.46,-471.13 262,-514 269.66,-527.96 280.2,-541.97 289.93,-553.62"/>
<polygon fill="midnightblue" stroke="midnightblue" points="287.32,-555.96 296.49,-561.28 292.64,-551.41 287.32,-555.96"/>
</g>
</g>
</svg>
        <g id="navigator" transform="translate(0 0)" fill="#404254">
                <rect fill="#f2f5e9" fill-opacity="0.5" stroke="#606060" stroke-width=".5" x="0" y="0" width="60" height="60"/>
                <use id="zoomplus" xlink:href="#zoomPlus" x="17" y="9" onmousedown="handleZoom(evt,'in')"/>
                <use id="zoomminus" xlink:href="#zoomMin" x="42" y="9" onmousedown="handleZoom(evt,'out')"/>
                <use id="reset" xlink:href="#resetDef" x="30" y="36" onmousedown="handleReset()"/>
                <g id="arrowUp" xlink:href="#dirArrow" transform="translate(30 24)" onmousedown="handlePan(0,-1)">
                  <use xlink:href="#rim" fill="#404040">
                        <set attributeName="fill" to="#808080" begin="arrowUp.mouseover" end="arrowUp.mouseout"/>
                  </use>
                  <path fill="none" stroke="white" stroke-width="1.5" d="M0,-3.0v7 M-2.5,-0.5L0,-3.0L2.5,-0.5"/>
                </g>
                <g id="arrowRight" xlink:href="#dirArrow" transform="rotate(90) translate(36 -43)" onmousedown="handlePan(1,0)">
                  <use xlink:href="#rim" fill="#404040">
                        <set attributeName="fill" to="#808080" begin="arrowRight.mouseover" end="arrowRight.mouseout"/>
                  </use>
                  <path fill="none" stroke="white" stroke-width="1.5" d="M0,-3.0v7 M-2.5,-0.5L0,-3.0L2.5,-0.5"/>
                </g>
                <g id="arrowDown" xlink:href="#dirArrow" transform="rotate(180) translate(-30 -48)" onmousedown="handlePan(0,1)">
                  <use xlink:href="#rim" fill="#404040">
                        <set attributeName="fill" to="#808080" begin="arrowDown.mouseover" end="arrowDown.mouseout"/>
                  </use>
                  <path fill="none" stroke="white" stroke-width="1.5" d="M0,-3.0v7 M-2.5,-0.5L0,-3.0L2.5,-0.5"/>
                </g>
                <g id="arrowLeft" xlink:href="#dirArrow" transform="rotate(270) translate(-36 17)" onmousedown="handlePan(-1,0)">
                  <use xlink:href="#rim" fill="#404040">
                        <set attributeName="fill" to="#808080" begin="arrowLeft.mouseover" end="arrowLeft.mouseout"/>
                  </use>
                  <path fill="none" stroke="white" stroke-width="1.5" d="M0,-3.0v7 M-2.5,-0.5L0,-3.0L2.5,-0.5"/>
                </g>
        </g>
        <svg viewBox="0 0 15 15" width="100%" height="30px" preserveAspectRatio="xMaxYMin meet">
         <g id="arrow_out" transform="scale(0.3 0.3)">
          <a xlink:href="integral__approximation_8cpp_ae66f6b31b5ad750f1fe042a706a4e3d4_cgraph_org.svg" target="_base">
           <rect id="button" ry="5" rx="5" y="6" x="6" height="38" width="38"
                fill="#f2f5e9" fill-opacity="0.5" stroke="#606060" stroke-width="1.0"/>
           <path id="arrow"
             d="M 11.500037,31.436501 C 11.940474,20.09759 22.043105,11.32322 32.158766,21.979434 L 37.068811,17.246167 C 37.068811,17.246167 37.088388,32 37.088388,32 L 22.160133,31.978069 C 22.160133,31.978069 26.997745,27.140456 26.997745,27.140456 C 18.528582,18.264221 13.291696,25.230495 11.500037,31.436501 z"
             style="fill:#404040;"/>
          </a>
         </g>
        </svg>
</svg>
